<?xml version="1.0" encoding="utf-8"?>
<!-- Generator: Adobe Illustrator 19.1.0, SVG Export Plug-In . SVG Version: 6.00 Build 0)  -->
<svg version="1.1" id="Layer_1" xmlns="http://www.w3.org/2000/svg" xmlns:xlink="http://www.w3.org/1999/xlink" x="0px" y="0px"
	 viewBox="0 0 24.1 28.2" style="enable-background:new 0 0 24.1 28.2;" xml:space="preserve">
<style type="text/css">
	.st0{fill:#FFFFFF;}
</style>
<g>
	<path class="st0" d="M23.1,6c0.3,0.3,0.5,0.7,0.8,1.2c0.2,0.5,0.3,1,0.3,1.4v18.1c0,0.4-0.1,0.8-0.4,1.1s-0.7,0.4-1.1,0.4H1.5
		c-0.4,0-0.8-0.1-1.1-0.4S0,27.1,0,26.7V1.5c0-0.4,0.1-0.8,0.4-1.1S1.1,0,1.5,0h14.1C16,0,16.5,0.1,17,0.3c0.5,0.2,0.9,0.5,1.2,0.8
		L23.1,6z M22.1,26.2V10.1h-6.5c-0.4,0-0.8-0.1-1.1-0.4c-0.3-0.3-0.4-0.7-0.4-1.1V2H2v24.1H22.1z M14.1,16.8
		c0.3,0.3,0.8,0.6,1.3,0.9c0.6-0.1,1.2-0.1,1.8-0.1c1.5,0,2.5,0.3,2.8,0.8c0.2,0.2,0.2,0.5,0,0.8c0,0,0,0,0,0c0,0,0,0,0,0v0
		c-0.1,0.4-0.4,0.6-1.1,0.6c-0.5,0-1.1-0.1-1.8-0.3c-0.7-0.2-1.4-0.5-2-0.8c-2.3,0.3-4.4,0.7-6.2,1.3C7.2,22.8,6,24.1,5,24.1
		c-0.2,0-0.3,0-0.4-0.1l-0.4-0.2c0,0,0,0-0.1-0.1C4,23.7,4,23.5,4,23.2c0.1-0.4,0.4-0.9,0.9-1.4c0.5-0.5,1.2-1,2.1-1.5
		c0.1-0.1,0.3-0.1,0.4,0.1c0,0,0,0,0,0.1c0.5-0.9,1.1-1.9,1.7-3.1c0.7-1.4,1.3-2.8,1.6-4.1c-0.3-0.9-0.4-1.7-0.5-2.5
		c-0.1-0.8,0-1.5,0.1-2c0.1-0.4,0.3-0.6,0.7-0.6h0.3h0c0.2,0,0.4,0.1,0.6,0.2c0.2,0.2,0.2,0.6,0.1,1.1c0,0.1,0,0.1-0.1,0.1
		c0,0,0,0.1,0,0.1v0.5c0,1.3-0.1,2.3-0.2,3C12.3,14.8,13.1,16.1,14.1,16.8z M5,23.3c0.5-0.3,1.3-1.1,2.2-2.5c-0.5,0.4-1,0.9-1.4,1.3
		C5.4,22.6,5.1,23,5,23.3z M9.3,19.2c1.4-0.6,2.9-1,4.5-1.3c0,0-0.1-0.1-0.2-0.2c-0.1-0.1-0.2-0.2-0.3-0.2c-0.8-0.7-1.5-1.6-2-2.8
		c-0.3,0.9-0.7,1.9-1.3,3.1C9.7,18.5,9.5,18.9,9.3,19.2z M11.3,8.8c-0.2,0.4-0.2,1.1,0,2.1c0-0.1,0-0.3,0.1-0.7c0,0,0-0.3,0.1-0.7
		c0,0,0-0.1,0.1-0.1c0,0,0,0,0,0c0,0,0,0,0,0c0,0,0,0,0,0C11.5,9.1,11.4,8.9,11.3,8.8C11.3,8.8,11.3,8.8,11.3,8.8L11.3,8.8z
		 M16.1,2.1v5.9H22c-0.1-0.3-0.2-0.5-0.3-0.6l-4.9-4.9C16.6,2.4,16.4,2.2,16.1,2.1z M19.5,19c-0.3-0.3-1-0.4-2.2-0.4
		c0.8,0.3,1.4,0.4,2,0.4C19.4,19,19.5,19,19.5,19C19.5,19,19.5,19,19.5,19z"/>
</g>
</svg>
